<svg width="43" height="42" viewBox="0 0 43 42" fill="none" xmlns="http://www.w3.org/2000/svg">
<path d="M21.375 38C23.7205 38 25.6231 36.0975 25.6231 33.75H17.127C17.127 36.0975 19.0296 38 21.375 38ZM35.6783 28.0583C34.3953 26.6797 31.9947 24.6059 31.9947 17.8125C31.9947 12.6527 28.3769 8.52227 23.4987 7.50891V6.125C23.4987 4.9516 22.5478 4 21.375 4C20.2023 4 19.2514 4.9516 19.2514 6.125V7.50891C14.3732 8.52227 10.7554 12.6527 10.7554 17.8125C10.7554 24.6059 8.35477 26.6797 7.0718 28.0583C6.67337 28.4866 6.49673 28.9986 6.50005 29.5C6.50735 30.5891 7.362 31.625 8.63169 31.625H34.1184C35.3881 31.625 36.2434 30.5891 36.25 29.5C36.2534 28.9986 36.0767 28.486 35.6783 28.0583Z" fill="#605DBA"/>
</svg>
