<svg width="44" height="44" viewBox="0 0 44 44" fill="none" xmlns="http://www.w3.org/2000/svg">
<g id="Location city" clip-path="url(#clip0_38_1404)">
<path id="Vector" d="M27.5 20.1666V9.16663L22 3.66663L16.5 9.16663V12.8333H5.5V38.5H38.5V20.1666H27.5ZM12.8333 34.8333H9.16667V31.1666H12.8333V34.8333ZM12.8333 27.5H9.16667V23.8333H12.8333V27.5ZM12.8333 20.1666H9.16667V16.5H12.8333V20.1666ZM23.8333 34.8333H20.1667V31.1666H23.8333V34.8333ZM23.8333 27.5H20.1667V23.8333H23.8333V27.5ZM23.8333 20.1666H20.1667V16.5H23.8333V20.1666ZM23.8333 12.8333H20.1667V9.16663H23.8333V12.8333ZM34.8333 34.8333H31.1667V31.1666H34.8333V34.8333ZM34.8333 27.5H31.1667V23.8333H34.8333V27.5Z" fill="#605DBA"/>
</g>
<defs>
<clipPath id="clip0_38_1404">
<rect width="44" height="44" fill="white"/>
</clipPath>
</defs>
</svg>
