<svg width="44" height="42" viewBox="0 0 44 42" fill="none" xmlns="http://www.w3.org/2000/svg">
<path d="M31.7116 0.294117H14.2437C7.67458 0.294117 2.35303 5.61571 2.35303 12.1831V29.6561C2.35303 30.1164 2.38851 30.5701 2.43929 31.0203C3.28053 30.6429 4.20811 30.4296 5.19322 30.4296C6.30358 30.4296 7.35472 30.7038 8.28228 31.1811L11.4255 28.0379C10.2034 25.9171 9.48738 23.4645 9.48738 20.8409C9.48738 12.8856 15.9346 6.43665 23.8916 6.43665C31.852 6.43665 38.3026 12.8856 38.3026 20.8409C38.3026 28.7962 31.852 35.2468 23.8916 35.2468C19.7819 35.2468 16.0819 33.5187 13.4583 30.7546L10.7907 33.4239C11.5067 34.4936 11.9265 35.7817 11.9265 37.168C11.9265 38.5965 11.4813 39.9184 10.7213 41.0085C11.8334 41.3521 13.0148 41.5383 14.242 41.5383H31.7116C38.2806 41.5383 43.6023 36.2167 43.6023 29.6561V12.1831C43.6023 5.61571 38.2806 0.294117 31.7116 0.294117Z" fill="#191B1F"/>
<path d="M9.18964 35.0268C8.64293 34.0078 7.71869 33.2241 6.60494 32.8585C6.15978 32.7112 5.68422 32.63 5.19167 32.63C4.3572 32.63 3.58029 32.8585 2.90832 33.2512C1.55929 34.0366 0.646973 35.4973 0.646973 37.173C0.646973 37.7214 0.750146 38.2445 0.927871 38.7303C1.27655 39.6764 1.92652 40.4736 2.76606 41.0034C3.47019 41.4469 4.2979 41.7059 5.18991 41.7059C6.56263 41.7059 7.78981 41.0931 8.62258 40.1283C9.30978 39.3345 9.72613 38.302 9.72613 37.1713C9.72782 36.3978 9.53155 35.6649 9.18964 35.0268Z" fill="#191B1F"/>
</svg>
