<svg width="65" height="47" viewBox="0 0 65 47" fill="none" xmlns="http://www.w3.org/2000/svg">
    <rect x="0.5" y="0.947754" width="64" height="45" rx="3.5" fill="white"/>
    <rect x="0.5" y="0.947754" width="64" height="45" rx="3.5" stroke="#F2F4F7"/>
    <path fill-rule="evenodd" clip-rule="evenodd" d="M32.8423 32.7043C30.5787 34.6172 27.6424 35.772 24.4338 35.772C17.2745 35.772 11.4707 30.0225 11.4707 22.9303C11.4707 15.838 17.2745 10.0886 24.4338 10.0886C27.6424 10.0886 30.5787 11.2434 32.8423 13.1563C35.1059 11.2434 38.0422 10.0886 41.2508 10.0886C48.4101 10.0886 54.2138 15.838 54.2138 22.9303C54.2138 30.0225 48.4101 35.772 41.2508 35.772C38.0422 35.772 35.1059 34.6172 32.8423 32.7043Z" fill="#ED0006"/>
    <path fill-rule="evenodd" clip-rule="evenodd" d="M32.8423 32.7043C35.6295 30.3489 37.3969 26.844 37.3969 22.9303C37.3969 19.0165 35.6295 15.5117 32.8423 13.1563C35.1059 11.2434 38.0422 10.0886 41.2508 10.0886C48.4101 10.0886 54.2139 15.838 54.2139 22.9303C54.2139 30.0225 48.4101 35.772 41.2508 35.772C38.0422 35.772 35.1059 34.6172 32.8423 32.7043Z" fill="#F9A000"/>
    <path fill-rule="evenodd" clip-rule="evenodd" d="M32.8421 32.7043C35.6293 30.3489 37.3967 26.8441 37.3967 22.9304C37.3967 19.0167 35.6293 15.5119 32.8421 13.1565C30.0549 15.5119 28.2876 19.0167 28.2876 22.9304C28.2876 26.8441 30.0549 30.3489 32.8421 32.7043Z" fill="#FF5E00"/>
</svg>
