<svg width="43" height="42" viewBox="0 0 43 42" fill="none" xmlns="http://www.w3.org/2000/svg">
<path d="M7.5 19C9.70625 19 11.5 17.2063 11.5 15C11.5 12.7937 9.70625 11 7.5 11C5.29375 11 3.5 12.7937 3.5 15C3.5 17.2063 5.29375 19 7.5 19ZM35.5 19C37.7062 19 39.5 17.2063 39.5 15C39.5 12.7937 37.7062 11 35.5 11C33.2938 11 31.5 12.7937 31.5 15C31.5 17.2063 33.2938 19 35.5 19ZM37.5 21H33.5C32.4 21 31.4062 21.4438 30.6812 22.1625C33.2 23.5438 34.9875 26.0375 35.375 29H39.5C40.6063 29 41.5 28.1063 41.5 27V25C41.5 22.7937 39.7062 21 37.5 21ZM21.5 21C25.3687 21 28.5 17.8687 28.5 14C28.5 10.1312 25.3687 7 21.5 7C17.6313 7 14.5 10.1312 14.5 14C14.5 17.8687 17.6313 21 21.5 21ZM26.3 23H25.7812C24.4813 23.625 23.0375 24 21.5 24C19.9625 24 18.525 23.625 17.2188 23H16.7C12.725 23 9.5 26.225 9.5 30.2V32C9.5 33.6562 10.8438 35 12.5 35H30.5C32.1562 35 33.5 33.6562 33.5 32V30.2C33.5 26.225 30.275 23 26.3 23ZM12.3188 22.1625C11.5938 21.4438 10.6 21 9.5 21H5.5C3.29375 21 1.5 22.7937 1.5 25V27C1.5 28.1063 2.39375 29 3.5 29H7.61875C8.0125 26.0375 9.8 23.5438 12.3188 22.1625Z" fill="#605DBA"/>
</svg>
