<svg width="43" height="42" viewBox="0 0 43 42" fill="none" xmlns="http://www.w3.org/2000/svg">
<path d="M16.756 21.392C16.9706 22.3215 15.9509 23.0279 15.1577 22.5321L12.4526 20.8417L9.0747 26.2473C8.19256 27.6587 9.21216 29.5 10.8758 29.5H14.3281C14.7682 29.5 15.125 29.8568 15.125 30.2969V32.9531C15.125 33.3932 14.7682 33.75 14.3281 33.75H10.8826C5.87996 33.75 2.82741 28.2351 5.47661 23.9962L8.8515 18.5916L6.14712 16.9017C5.34486 16.4005 5.55172 15.1777 6.47111 14.9654L13.7915 13.2754C14.3633 13.1434 14.9338 13.4999 15.0658 14.0716L16.756 21.392ZM23.301 9.24532L26.0429 13.6332L23.3375 15.3237C22.5372 15.8236 22.7398 17.0471 23.6615 17.2599L30.9819 18.95C31.5577 19.0827 32.1251 18.7217 32.2561 18.1538L33.9462 10.8334C34.1585 9.91403 33.15 9.19186 32.3479 9.6933L29.646 11.3816L26.9059 6.99336C24.4143 3.0068 18.5913 2.99763 16.094 6.99336L14.9011 8.90359C14.668 9.2768 14.7816 9.76827 15.1548 10.0015L17.4072 11.409C17.7804 11.6422 18.2721 11.5287 18.5053 11.1555L19.698 9.24678C20.5422 7.89601 22.4853 7.94017 23.301 9.24532ZM37.5229 23.9962L35.6958 21.0701C35.4626 20.6967 34.9709 20.583 34.5975 20.8163L32.349 22.2214C31.9758 22.4546 31.8622 22.9462 32.0954 23.3195L33.9259 26.2488C34.8062 27.6573 33.7893 29.5 32.1239 29.5H25.7499V26.3138C25.7499 25.37 24.605 24.8939 23.9362 25.5626L18.6237 30.8738C18.2087 31.2887 18.2087 31.9615 18.6237 32.3764L23.9362 37.6881C24.6004 38.3524 25.7499 37.8871 25.7499 36.9367V33.75H32.117C37.1156 33.75 40.1743 28.2385 37.5229 23.9962Z" fill="#605DBA"/>
</svg>
