<svg width="44" height="44" viewBox="0 0 44 44" fill="none" xmlns="http://www.w3.org/2000/svg">
<g id="Access time" clip-path="url(#clip0_38_1394)">
<path id="Vector" d="M21.9817 3.66663C11.8617 3.66663 3.66666 11.88 3.66666 22C3.66666 32.12 11.8617 40.3333 21.9817 40.3333C32.12 40.3333 40.3333 32.12 40.3333 22C40.3333 11.88 32.12 3.66663 21.9817 3.66663ZM22 36.6666C13.8967 36.6666 7.33333 30.1033 7.33333 22C7.33333 13.8966 13.8967 7.33329 22 7.33329C30.1033 7.33329 36.6667 13.8966 36.6667 22C36.6667 30.1033 30.1033 36.6666 22 36.6666Z" fill="#605DBA"/>
<path id="Vector_2" d="M22.9167 12.8334H20.1667V23.8334L29.7917 29.6084L31.1667 27.3534L22.9167 22.4584V12.8334Z" fill="#605DBA"/>
</g>
<defs>
<clipPath id="clip0_38_1394">
<rect width="44" height="44" fill="white"/>
</clipPath>
</defs>
</svg>
