<svg width="65" height="47" viewBox="0 0 65 47" fill="none" xmlns="http://www.w3.org/2000/svg">
    <rect x="0.5" y="0.947754" width="64" height="45" rx="3.5" fill="white"/>
    <rect x="0.5" y="0.947754" width="64" height="45" rx="3.5" stroke="#F2F4F7"/>
    <path fill-rule="evenodd" clip-rule="evenodd" d="M20.5517 30.8426H16.614L13.6612 19.2164C13.521 18.6816 13.2234 18.2088 12.7857 17.9859C11.6933 17.4259 10.4895 16.9803 9.17627 16.7555V16.3079H15.5197C16.3951 16.3079 17.0517 16.9803 17.1612 17.7612L18.6933 26.1476L22.6291 16.3079H26.4574L20.5517 30.8426ZM28.6461 30.8426H24.9272L27.9895 16.3079H31.7084L28.6461 30.8426ZM36.5197 20.3344C36.6291 19.5516 37.2857 19.104 38.0518 19.104C39.2555 18.9916 40.5668 19.2164 41.6612 19.7744L42.3178 16.645C41.2235 16.1974 40.0197 15.9727 38.9272 15.9727C35.3178 15.9727 32.6914 17.9859 32.6914 20.7801C32.6914 22.9058 34.5518 24.0219 35.865 24.6943C37.2857 25.3647 37.8329 25.8123 37.7235 26.4828C37.7235 27.4885 36.6291 27.9361 35.5367 27.9361C34.2235 27.9361 32.9102 27.6009 31.7084 27.0409L31.0518 30.1722C32.365 30.7303 33.7857 30.955 35.0989 30.955C39.1461 31.0655 41.6612 29.0541 41.6612 26.0352C41.6612 22.2334 36.5197 22.0106 36.5197 20.3344ZM54.6763 30.8426L51.7234 16.3079H48.5518C47.8951 16.3079 47.2385 16.7555 47.0197 17.4259L41.5518 30.8426H45.3801L46.1442 28.7189H50.848L51.2857 30.8426H54.6763ZM49.0989 20.2221L50.1914 25.7H47.1291L49.0989 20.2221Z" fill="#0086C9"/>
</svg>
